<?xml version="1.0" encoding="utf-8"?>
<!-- Designed by Vexels.com - 2020 All Rights Reserved - https://vexels.com/terms-and-conditions/  -->
<svg version="1.1" id="Capa_1" xmlns="http://www.w3.org/2000/svg" xmlns:xlink="http://www.w3.org/1999/xlink" x="0px" y="0px"
	 viewBox="0 0 1200 1200" enable-background="new 0 0 1200 1200" xml:space="preserve">
<g>
	<linearGradient id="SVGID_1_" gradientUnits="userSpaceOnUse" x1="248.7227" y1="1084.6338" x2="923.3782" y2="153.8255">
		<stop  offset="0.0722" style="stop-color:#0164E1"/>
		<stop  offset="1" style="stop-color:#18AAFD"/>
	</linearGradient>
	<path fill="url(#SVGID_1_)" d="M599.98,50C296.239,50,50.024,296.257,50.024,599.999C50.024,903.741,296.242,1150,599.98,1150
		c52.279,0,102.856-7.314,150.751-20.965c197.626-56.186,349.925-220.139,389.287-424.311c6.544-33.916,9.958-68.936,9.958-104.721
		C1149.976,296.257,903.721,50,599.98,50z M864.24,387.717c44.402,0,80.405,35.999,80.405,80.406
		c0,44.409-36.004,80.405-80.405,80.405c-44.41,0-80.405-35.996-80.405-80.405C783.835,423.716,819.83,387.717,864.24,387.717z
		 M600,258.805c69.299,0,125.478,56.178,125.478,125.477c0,69.299-56.179,125.478-125.478,125.478s-125.477-56.178-125.477-125.478
		C474.523,314.984,530.701,258.805,600,258.805z M335.762,387.717c44.409,0,80.405,35.999,80.405,80.406
		c0,44.409-35.997,80.405-80.405,80.405c-44.403,0-80.407-35.996-80.407-80.405C255.355,423.716,291.358,387.717,335.762,387.717z
		 M317.452,799.41c0.724,9.395-7.313,17.165-16.736,17.165c-34.922,0.002-71.972-0.006-104.138-0.003
		c-36.888,0.004-61.12-31.348-58.309-67.511c0.142-1.83,0.353-3.672,0.636-5.522c6.272-41.086,34.408-82.788,68.809-103.746
		c31.196-18.999,69.34-24.767,105.051-24.047c14.565,0.295,29.441,1.207,43.864,4.08c11.45,2.28,15.928,15.897,9.225,25.455
		c-8.38,11.95-15.163,25.381-21.303,38.24C327.63,718.956,314.359,759.296,317.452,799.41z M759.088,846.067
		c-105.619-0.009-234.363-0.021-318.113-0.018c-54.33,0.002-94.544-47.194-82.971-96.998
		c17.348-74.668,66.293-143.22,144.261-167.646c25.384-7.952,52.014-11.777,78.799-12.8c10.43-0.398,20.884-0.372,31.297,0.001
		c45.629,1.633,92.088,10.235,130.778,32.988c41.66,24.499,71.732,64.28,87.903,107.841c5.234,14.096,9.083,28.571,11.73,43.26
		C851.563,801.472,811.815,846.072,759.088,846.067z M1003.421,816.572c-32.166-0.003-69.216,0.005-104.136,0.003
		c-9.423,0-17.461-7.77-16.736-17.165c3.094-40.113-10.178-80.454-27.1-115.889c-6.14-12.859-12.924-26.29-21.303-38.24
		c-6.703-9.558-2.225-23.175,9.225-25.455c14.425-2.873,29.299-3.785,43.866-4.08c35.709-0.72,73.853,5.048,105.051,24.047
		c34.401,20.958,62.535,62.66,68.807,103.746c0.284,1.851,0.495,3.693,0.637,5.522
		C1064.543,785.224,1040.309,816.576,1003.421,816.572z"/>
	<path fill="#F4F5F8" d="M831.041,709.436c-16.171-43.562-46.243-83.342-87.903-107.841c-38.69-22.753-85.149-31.355-130.778-32.988
		c-10.413-0.373-20.867-0.399-31.297-0.001c-26.785,1.023-53.415,4.848-78.799,12.8c-77.968,24.426-126.913,92.978-144.261,167.646
		c-11.573,49.804,28.642,97,82.971,96.998c83.751-0.003,212.495,0.008,318.113,0.018c52.727,0.005,92.475-44.595,83.683-93.371
		C840.124,738.007,836.275,723.532,831.041,709.436z"/>
	
		<ellipse transform="matrix(0.8944 -0.4472 0.4472 0.8944 -108.5129 308.899)" fill="#F4F5F8" cx="600" cy="384.283" rx="125.478" ry="125.477"/>
	<path fill="#F4F5F8" d="M1061.095,743.539c-6.272-41.086-34.406-82.788-68.807-103.746
		c-31.198-18.999-69.341-24.767-105.051-24.047c-14.567,0.295-29.441,1.207-43.866,4.08c-11.45,2.28-15.928,15.897-9.225,25.455
		c8.38,11.95,15.163,25.381,21.303,38.24c16.922,35.435,30.193,75.776,27.1,115.889c-0.725,9.395,7.313,17.165,16.736,17.165
		c34.92,0.002,71.97-0.006,104.136-0.003c36.888,0.004,61.122-31.348,58.311-67.511
		C1061.59,747.231,1061.379,745.389,1061.095,743.539z"/>
	<circle fill="#F4F5F8" cx="864.24" cy="468.123" r="80.405"/>
	<path fill="#F4F5F8" d="M365.854,645.281c6.703-9.558,2.225-23.175-9.225-25.455c-14.423-2.873-29.299-3.785-43.864-4.08
		c-35.711-0.72-73.855,5.048-105.051,24.047c-34.401,20.958-62.537,62.66-68.809,103.746c-0.282,1.851-0.494,3.693-0.636,5.522
		c-2.811,36.163,21.422,67.515,58.309,67.511c32.166-0.003,69.216,0.005,104.138,0.003c9.423,0,17.459-7.77,16.736-17.165
		c-3.094-40.113,10.178-80.454,27.098-115.889C350.69,670.662,357.474,657.231,365.854,645.281z"/>
	<path fill="#F4F5F8" d="M335.762,548.528c44.409,0,80.405-35.996,80.405-80.405c0-44.406-35.997-80.406-80.405-80.406
		c-44.403,0-80.407,35.999-80.407,80.406C255.355,512.532,291.358,548.528,335.762,548.528z"/>
</g>
</svg>
