<!DOCTYPE svg PUBLIC "-//W3C//DTD SVG 1.1//EN" "http://www.w3.org/Graphics/SVG/1.1/DTD/svg11.dtd">
<!-- Uploaded to: SVG Repo, www.svgrepo.com, Transformed by: SVG Repo Mixer Tools -->
<svg fill="#ffffff" height="800px" width="800px" version="1.1" id="Layer_1" xmlns="http://www.w3.org/2000/svg" xmlns:xlink="http://www.w3.org/1999/xlink" viewBox="-115.5 -115.5 561.00 561.00" xml:space="preserve" stroke="#ffffff">
<g id="SVGRepo_bgCarrier" stroke-width="0">
<rect x="-115.5" y="-115.5" width="561.00" height="561.00" rx="280.5" fill="#59ee77" strokewidth="0"/>
</g>
<g id="SVGRepo_tracerCarrier" stroke-linecap="round" stroke-linejoin="round"/>
<g id="SVGRepo_iconCarrier"> <g id="XMLID_450_"> <path id="XMLID_451_" d="M315,0H15C6.716,0,0,6.716,0,15v230c0,8.284,6.716,15,15,15h45v55c0,5.593,3.111,10.722,8.072,13.305 c2.18,1.135,4.557,1.695,6.926,1.695c3.024,0,6.035-0.913,8.604-2.711L179.728,260H315c8.284,0,15-6.716,15-15V15 C330,6.716,323.284,0,315,0z M100.609,140.61C97.81,143.4,93.949,145,90,145c-3.95,0-7.811-1.6-10.61-4.39 C76.6,137.82,75,133.95,75,130c0-3.95,1.6-7.81,4.39-10.61C82.18,116.6,86.05,115,90,115c3.949,0,7.81,1.6,10.609,4.39 C103.4,122.19,105,126.05,105,130C105,133.95,103.4,137.81,100.609,140.61z M175.609,140.61C172.81,143.4,168.949,145,165,145 c-3.95,0-7.811-1.6-10.61-4.39c-2.79-2.8-4.39-6.66-4.39-10.61c0-3.95,1.6-7.81,4.39-10.61c2.79-2.79,6.66-4.39,10.61-4.39 c3.949,0,7.81,1.6,10.609,4.39C178.4,122.19,180,126.05,180,130C180,133.95,178.4,137.81,175.609,140.61z M250.609,140.61 C247.81,143.4,243.949,145,240,145c-3.95,0-7.811-1.6-10.61-4.39c-2.79-2.79-4.39-6.66-4.39-10.61c0-3.95,1.6-7.82,4.39-10.61 c2.8-2.79,6.66-4.39,10.61-4.39c3.949,0,7.81,1.6,10.609,4.39C253.4,122.19,255,126.05,255,130 C255,133.95,253.4,137.81,250.609,140.61z"/> </g> </g>
</svg>